<svg xmlns="http://www.w3.org/2000/svg" width="410" height="404" viewBox="0 0 410 404" fill="none">
  <defs>
    <linearGradient id="vite-gradient" x1="6.00017" y1="32.9999" x2="235" y2="344" gradientUnits="userSpaceOnUse">
      <stop stop-color="#41D1FF"/>
      <stop offset="1" stop-color="#BD34FE"/>
    </linearGradient>
  </defs>
  <path d="M399.641 59.5246L216.211 388.545C209.677 400.191 192.395 400.221 185.826 388.601L9.22628 59.5563C2.0423 46.7689 12.3955 31.1864 27.3931 32.4765L205.223 47.9639C206.398 48.0664 207.58 47.9808 208.735 47.7097L381.444 7.7258C396.4 4.29268 408.534 20.695 401.228 34.0285L310.394 203.211C304.938 213.49 289.88 213.78 284.035 203.75L226.105 105.488C220.759 96.2201 207.139 96.0313 201.546 105.133L140.519 204.771C134.893 213.931 121.226 213.861 115.728 204.629L82.0135 149.06C76.2101 139.373 62.553 139.619 56.9986 149.526L22.1829 210.59" stroke="url(#vite-gradient)" stroke-width="24"/>
</svg>
